PathFileType	4	(X/Y/Z)	C:/Users/opensim2020/Desktop/walking_exp_matlab/subject02_walking06_static.trc																																																																																																																									
DataRate	CameraRate	NumFrames	NumMarkers	Units	OrigDataRate	OrigDataStartFrame	OrigNumFrames																																																																																																																					
100	100	4	41	mm	100	36	287																																																																																																																					
Frame#	Time	LFHD			RFHD			LBHD			RBHD			C7			T10			CLAV			STRN			RBAK			LSHO			LUPA			LELB			LFRM			LWRA			LWRB			LFIN			RSHO			RUPA			RELB			RFRM			RWRA			RWRB			RFIN			LASI			RASI			LPSI			RPSI			LTHI			LKNE			LTIB			LANK			LHEE			LTOE			RTHI			RKNE			RTIB			RANK			RHEE			RTOE			*39			*40		
		X1	Y1	Z1	X2	Y2	Z2	X3	Y3	Z3	X4	Y4	Z4	X5	Y5	Z5	X6	Y6	Z6	X7	Y7	Z7	X8	Y8	Z8	X9	Y9	Z9	X10	Y10	Z10	X11	Y11	Z11	X12	Y12	Z12	X13	Y13	Z13	X14	Y14	Z14	X15	Y15	Z15	X16	Y16	Z16	X17	Y17	Z17	X18	Y18	Z18	X19	Y19	Z19	X20	Y20	Z20	X21	Y21	Z21	X22	Y22	Z22	X23	Y23	Z23	X24	Y24	Z24	X25	Y25	Z25	X26	Y26	Z26	X27	Y27	Z27	X28	Y28	Z28	X29	Y29	Z29	X30	Y30	Z30	X31	Y31	Z31	X32	Y32	Z32	X33	Y33	Z33	X34	Y34	Z34	X35	Y35	Z35	X36	Y36	Z36	X37	Y37	Z37	X38	Y38	Z38	X39	Y39	Z39	X40	Y40	Z40	X41	Y41	Z41
																																																																																																																												
36	0.35	17.32526	1751.66187	-692.80939	3.25941	1732.83228	-551.12756	-104.93108	1665.83411	-715.85217	-131.63225	1644.75793	-576.10419	-151.92786	1525.04968	-641.27789	-191.64113	1247.93079	-635.92798	-1.37731	1475.41577	-650.57257	63.75374	1309.71594	-640.80872	-188.03589	1351.51917	-563.27576	-52.80124	1515.24707	-817.86804	-46.79028	1331.22717	-923.32166	-58.60506	1191.23828	-951.12689	-45.41058	1056.07556	-965.4483	1.8813	931.16302	-924.21387	-37.5031	932.86523	-965.30402	-16.46756	870.07605	-965.98602	-49.77253	1516.01233	-460.38766	-48.04035	1349.0741	-342.78262	-27.82228	1201.21033	-309.75409	10.7664	1083.09753	-302.88953	52.21784	958.73578	-339.51898	23.03093	952.93274	-292.36075	62.66503	894.04065	-304.77762	40.0074	993.99915	-758.98608	31.64486	985.88635	-508.70035	-171.52805	1028.7804	-689.64325	-180.03618	1030.20667	-574.6778	-36.26568	686.25732	-840.24622	-71.90938	484.86203	-828.09149	-126.71911	299.7861	-851.94171	-116.19859	72.39236	-847.10858	-151.60091	40.8833	-801.24377	42.83427	30.98841	-860.35767	-57.82948	683.00763	-415.78653	-59.39787	471.60565	-432.46021	-111.09194	292.30127	-404.37454	-133.5303	97.0317	-415.32986	-166.35066	37.66497	-465.34448	15.55872	37.86876	-379.75275	-99.52539	1808.3103	-615.74585	3357.35864	1034.06348	2845.90405
37	0.36	17.28819	1751.63831	-692.84167	3.21812	1732.88123	-551.15491	-104.93612	1665.79712	-715.88977	-131.62886	1644.74475	-576.13049	-151.90065	1525.11597	-641.41602	-191.73051	1247.96436	-635.87939	-1.38267	1475.31824	-650.47974	63.70553	1309.71326	-640.60944	-188.13625	1351.62512	-563.263	-52.34776	1515.17505	-817.70422	-45.85512	1331.24854	-922.94971	-57.93241	1191.29504	-951.08453	-44.83536	1056.10144	-965.36084	1.90188	931.05243	-923.86438	-37.21438	932.94379	-965.18805	-16.52377	869.88562	-965.62433	-49.81605	1515.99744	-460.37341	-48.41074	1349.10278	-342.67117	-27.95056	1201.2876	-309.19247	10.43071	1083.13818	-302.57822	51.84285	958.78973	-339.29752	22.5984	952.91663	-291.97348	62.33502	894.08685	-304.51019	39.90598	994.02423	-758.98737	31.63931	985.88617	-508.72327	-171.63724	1028.74487	-689.59442	-180.07932	1030.17908	-574.61841	-36.30928	686.26459	-840.20081	-71.88448	484.83942	-828.11768	-126.6754	299.7706	-851.95227	-116.17427	72.39951	-847.12134	-151.59465	40.86908	-801.25787	42.8581	30.99957	-860.3811	-57.76566	683.04938	-415.78015	-59.2644	471.6315	-432.64621	-111.06914	292.30322	-404.40146	-133.53337	97.03195	-415.34558	-166.34579	37.71247	-465.38394	15.56055	37.84741	-379.77057	-99.61021	1808.31812	-615.8559	3357.53418	1033.96155	2845.88257
38	0.37	17.26854	1751.63171	-692.86786	3.05409	1732.92334	-551.18866	-104.91866	1665.72717	-715.95386	-131.69328	1644.72522	-576.21606	-151.86745	1525.19568	-641.5014	-191.82335	1247.98376	-635.85901	-1.39563	1475.21484	-650.3739	63.6277	1309.69397	-640.41553	-188.22093	1351.64673	-563.30957	-51.98277	1515.05139	-817.5304	-45.3014	1331.44202	-922.90997	-57.34821	1191.43701	-951.18414	-44.25913	1056.24316	-965.33466	1.9537	931.07312	-923.4978	-36.75212	933.03394	-965.14191	-16.40408	869.81256	-965.20886	-49.87709	1515.95862	-460.34467	-48.60415	1349.13904	-342.65198	-28.32073	1201.37964	-308.87311	10.0819	1083.23157	-302.22928	51.64156	958.91669	-338.85434	22.19943	953.19214	-291.35751	62.00431	894.17126	-304.1106	39.80197	994.0564	-758.98529	31.64513	985.8797	-508.74094	-171.72694	1028.6958	-689.45905	-180.108	1030.15088	-574.50366	-36.38591	686.31494	-840.15039	-71.87881	484.79947	-828.10046	-126.68241	299.75513	-851.95532	-116.21299	72.4098	-847.16742	-151.59673	40.90958	-801.26349	42.82629	30.97619	-860.38037	-57.48841	682.80658	-416.23734	-59.36437	471.63974	-432.46973	-111.06907	292.27237	-404.40479	-133.5603	96.99616	-415.36786	-166.41481	37.67136	-465.3428	15.5611	37.87387	-379.76544	-99.66388	1808.31165	-615.94006	3360.33496	1033.97168	2845.24805
39	0.38	17.2567	1751.63245	-692.8869	3.06133	1732.97095	-551.19324	-104.87965	1665.66797	-716.00769	-131.71901	1644.70496	-576.20514	-151.81522	1525.24597	-641.56848	-191.88078	1248.02502	-635.85864	-1.39142	1475.15918	-650.28467	63.57285	1309.66467	-640.20941	-188.30554	1351.72241	-563.36444	-51.64698	1515.12939	-817.42468	-45.00969	1331.60059	-923.02264	-56.83436	1191.62793	-951.43231	-43.70869	1056.40564	-965.42352	1.97894	931.1427	-923.01917	-36.39432	933.21967	-965.01837	-16.05408	869.85303	-964.7569	-49.9456	1515.9353	-460.34216	-49.73046	1349.4436	-342.19571	-28.91544	1201.47559	-308.85651	9.72598	1083.2981	-301.89716	51.23332	959.00641	-338.46988	21.76936	953.26312	-291.00537	61.62411	894.2793	-303.61209	39.68014	994.08459	-758.98779	31.63533	985.86243	-508.75168	-171.8452	1028.65112	-689.34283	-180.14456	1030.14453	-574.42291	-36.47735	686.29993	-840.04346	-71.86562	484.763	-828.08923	-126.68317	299.76657	-851.97754	-116.1934	72.38218	-847.10138	-151.59106	40.91009	-801.26801	42.82582	30.98699	-860.38165	-57.73714	682.95111	-415.74387	-59.20906	471.62222	-432.57718	-111.06615	292.25803	-404.37671	-133.53656	96.99154	-415.3497	-166.35449	37.67624	-465.36588	15.54505	37.86687	-379.76688	-99.78413	1808.30115	-616.1051	3360.33496	1033.90417	2845.27686
